/* XPM */
static char *xpm_[] = {
/* columns rows colors chars-per-pixel */
"30 30 162 2 ",
"   c #8B9150",
".  c #8A9150",
"X  c #899050",
"o  c #889050",
"O  c #868F51",
"+  c #828E51",
"@  c #878F50",
"#  c #879051",
"$  c #63694A",
"%  c #353540",
"&  c #61684A",
"*  c #798A52",
"=  c #879050",
"-  c #848E51",
";  c #808D51",
":  c #5F674A",
">  c #363641",
",  c #43424C",
"<  c #494851",
"1  c #4A4951",
"2  c #4E4D55",
"3  c #504E56",
"4  c #484750",
"5  c #373741",
"6  c #5C664A",
"7  c #728852",
"8  c #778A52",
"9  c #7C8C51",
"0  c #838E51",
"q  c #7E8C51",
"w  c #5B664A",
"e  c #3C3C46",
"r  c #817D80",
"t  c #A19C9B",
"y  c #A59F9E",
"u  c #BCB5B1",
"i  c #C5BEB9",
"p  c #9B9695",
"a  c #3E3E48",
"s  c #57644A",
"d  c #6C8553",
"f  c #6D8653",
"g  c #7C8B51",
"h  c #8A9050",
"j  c #818D51",
"k  c #60684A",
"l  c #3E3D47",
"z  c #969192",
"x  c #B4AAA3",
"c  c #9F9184",
"v  c #9D8F83",
"b  c #978A82",
"n  c #9B8D83",
"m  c #A19386",
"M  c #B2A394",
"N  c #B9AA99",
"B  c #BAAB9B",
"V  c #DBD0C4",
"C  c #B6B0AC",
"Z  c #41404A",
"A  c #5E674A",
"S  c #7A8B52",
"D  c #666A49",
"F  c #A5988D",
"G  c #745D44",
"H  c #735B42",
"J  c #6E5741",
"K  c #624D3D",
"L  c #6A5440",
"P  c #755D45",
"I  c #C1B3A4",
"U  c #B4AEAB",
"Y  c #656949",
"T  c #676A49",
"R  c #755D44",
"E  c #AEA194",
"W  c #A09A9A",
"Q  c #3F3E48",
"!  c #A3968C",
"~  c #6E5742",
"^  c #6C5640",
"/  c #69533F",
"(  c #614C3D",
")  c #67513F",
"_  c #9F938B",
"`  c #624D3F",
"'  c #604B3D",
"]  c #698553",
"[  c #53634B",
"{  c #A2968C",
"}  c #6D5742",
"|  c #6C5540",
" . c #66503F",
".. c #69523F",
"X. c #557D55",
"o. c #475E4C",
"O. c #B3A9A2",
"+. c #9D8E81",
"@. c #9C8D80",
"#. c #AA8C63",
"$. c #B68C4A",
"%. c #A68962",
"&. c #94877E",
"*. c #9A8B7F",
"=. c #3D3D47",
"-. c #908C8D",
";. c #B7B0AD",
":. c #D4B07A",
">. c #ECAF4F",
",. c #3B3B45",
"<. c #7C787B",
"1. c #999594",
"2. c #C2976B",
"3. c #E59949",
"4. c #767376",
"5. c #898380",
"6. c #7B6F69",
"7. c #7A6F68",
"8. c #786D68",
"9. c #736A66",
"0. c #AF8055",
"q. c #E39347",
"w. c #B38256",
"e. c #807671",
"r. c #5F4B3E",
"t. c #5E4A3D",
"y. c #5A473B",
"u. c #4F4038",
"i. c #96683F",
"p. c #D48B46",
"a. c #9E6D41",
"s. c #7B7370",
"d. c #53433B",
"f. c #524239",
"g. c #514139",
"h. c #4D3F38",
"j. c #624B3A",
"k. c #74553C",
"l. c #654C3B",
"z. c #7C7470",
"x. c #55453B",
"c. c #54443A",
"v. c #4E3F38",
"b. c #807772",
"n. c #624D40",
"m. c #614C3E",
"M. c #58473C",
"N. c #50423A",
"B. c #5C493D",
"V. c #8B8584",
"C. c #807672",
"Z. c #7D7471",
"A. c #7A7370",
"S. c #7E7571",
"D. c #393943",
"F. c #636166",
"G. c #868F50",
"H. c #4F7051",
"J. c #7F8C51",
"K. c #858F51",
"L. c #858E50",
"P. c #848E50",
/* pixels */
"                                                            ",
"      . X o o X .                             . O + @       ",
"      . # $ % % % % % % % % % % % % % % % % % % & * +       ",
"  . = - ; : > , < < < < < < < < < 1 2 3 3 3 4 5 6 7 8 9 -   ",
"  o 0 q * w e r t t t t t t t t t y u i i i p a s d d f g   ",
"  h @ - j k l z x c c v b n c c c m M N B V C Z A * * S 0   ",
"      . . D l z F G H J K L H H H H H H P I U Z Y X X X .   ",
"          T l z F G H J K L H H H H H H R E W Q T           ",
"          T l z ! ~ ^ / ( ) ^ ^ ^ ^ ^ ^ ~ ! z l T           ",
"          T l z _ ` ' ' ' ' ' ' ' ' ' ' ` _ z l T           ",
"        ] [ l z { } | | | | | |  .( ..| } { z l [ ]         ",
"        X.o.l z F G H H H H H H L K J H G F z l o.X.        ",
"        X.o.l z F G H H H H H H L K J H G F z l o.X.        ",
"        X.o.l z O.+.@.@.@.#.$.$.%.&.*.@.+.O.z l o.X.        ",
"        X.o.=.-.;.;.;.;.;.:.>.>.:.;.;.;.;.;.-.=.o.X.        ",
"        X.o.,.<.1.1.1.1.1.2.3.3.2.1.1.1.1.1.<.,.o.X.        ",
"        X.o.,.4.5.6.7.8.9.0.q.q.w.7.7.7.6.5.4.,.o.X.        ",
"        X.o.,.4.e.r.t.y.u.i.p.p.a.t.t.t.r.e.4.,.o.X.        ",
"        X.o.,.4.s.d.f.g.h.j.k.k.l.f.f.f.d.s.4.,.o.X.        ",
"        X.o.,.4.z.x.c.c.c.c.c.c.g.v.f.c.x.z.4.,.o.X.        ",
"        X.o.,.4.b.n.m.m.m.m.m.m.M.N.B.m.n.b.4.,.o.X.        ",
"        X.o.,.4.V.b.C.C.C.C.C.C.Z.A.S.C.b.V.4.,.o.X.        ",
"        X.o.D.F.4.4.4.4.4.4.4.4.4.4.4.4.4.4.F.D.o.X.        ",
"  . X = X.o.% D.,.,.,.,.,.,.,.,.,.,.,.,.,.,.D.% o.X.G.X .   ",
"  X O + X.H.o.o.o.o.o.o.o.o.o.o.o.o.o.o.o.o.o.o.H.X.J.O X   ",
"  X O + X.X.X.X.X.X.X.X.X.X.X.X.X.X.X.X.X.X.X.X.X.X.q K.o   ",
"  . o @ L.P.P.P.G.o .                       X @ 0 j 0 K.o   ",
"    h X X o o o X h                         X o = # # # X   ",
"      . . . . . .                           . . . . . . .   ",
"                                                            "
};
