/* XPM */
static char *xpm_[] = {
/* columns rows colors chars-per-pixel */
"30 30 6 1 ",
"  c #8B9150",
". c #557D55",
"X c #353540",
"o c #BDA351",
"O c #735B42",
"+ c #7E674C",
/* pixels */
"                              ",
"                              ",
"  ........  ......  ........  ",
"  .XXXXXX.  .XXXX.  .XXXXXXo  ",
"  .XOOOOX....XOOX....XOOOOXo  ",
"  .XOOOOXXXXXXOOXXXXXXOOOOXo  ",
"  .XOOOOOOOOOOOOOOOOOOOOOOXo  ",
"  .XOOOOOOOOOO++OOOOOOOOOOXo  ",
"  .XXXOO++++++++++++++OOXXXo  ",
"  ...XOO++++++++++++++OOXooo  ",
"    .XOO++++++++++++++OOXo    ",
"    .XOO++++++++++++++OOXo    ",
"  ...XOO++++++++++++++OOXooo  ",
"  .XXXOO++++++++++++++OOXXXo  ",
"  .XOOO++++++++++++++++OOOXo  ",
"  .XOOO++++++++++++++++OOOXo  ",
"  .XXXOO++++++++++++++OOXXXo  ",
"  ...XOO++++++++++++++OOXooo  ",
"    .XOO++++++++++++++OOXo    ",
"    .XOO++++++++++++++OOXo    ",
"  ...XOO++++++++++++++OOXooo  ",
"  .XXXOO++++++++++++++OOXXXo  ",
"  .XOOOOOOOOOO++OOOOOOOOOOXo  ",
"  .XOOOOOOOOOOOOOOOOOOOOOOXo  ",
"  .XOOOOXXXXXXOOXXXXXXOOOOXo  ",
"  .XOOOOXooooXOOXooooXOOOOXo  ",
"  .XXXXXXo  oXXXXo  oXXXXXXo  ",
"  oooooooo  oooooo  oooooooo  ",
"                              ",
"                              "
};
