/* XPM */
static char *xpm_[] = {
/* columns rows colors chars-per-pixel */
"30 30 16 1 ",
"  c #8B9150",
". c #858F51",
"X c #788A52",
"o c #6B8553",
"O c #718752",
"+ c #557D55",
"@ c #738852",
"# c #608154",
"$ c #808D51",
"% c #758952",
"& c #7A8B52",
"* c #7E8C51",
"= c #828E51",
"- c #878F50",
"; c #899050",
": c #688453",
/* pixels */
"                              ",
"         .XoO    ..        X  ",
" o+X    .o@+#   $%&.      %oo ",
" *%X*   $+O%&                 ",
"  #*=    -X+%                 ",
"          -%=                 ",
"                              ",
"                              ",
"                              ",
"  o*     ;==                  ",
" =#&=    =:XO                 ",
" O&##   =#:O:    ;;           ",
" .-++   $+#*    =XX=      -O. ",
"   $$   ;$=     ;--;      -.. ",
"                              ",
"                        .XoO  ",
"  ..        X   o+X    .o@+#  ",
" $%&.      %oo  *%X*   $+O%&  ",
"                 #*=    -X+%  ",
"                         -%=  ",
"                              ",
"                              ",
"                              ",
"                 o*     ;==   ",
"                =#&=    =:XO  ",
"                O&##   =#:O:  ",
"  ;;            .-++   $+#*   ",
" =XX=      -O.    $$   ;$=    ",
" ;--;      -..                ",
"                              "
};
