/* XPM */
static char *xpm_[] = {
/* columns rows colors chars-per-pixel */
"30 30 150 2 ",
"   c #1C1C1F",
".  c #232324",
"X  c #27272B",
"o  c #2B2F36",
"O  c #323237",
"+  c #323438",
"@  c #402E30",
"#  c #433032",
"$  c #4C3635",
"%  c #4B3B35",
"&  c #533536",
"*  c #503C35",
"=  c #553A3A",
"-  c #593E3C",
";  c #613637",
":  c #643D3B",
">  c #7E3432",
",  c #733E35",
"<  c #763B3E",
"1  c #793F3E",
"2  c #4E4136",
"3  c #55433A",
"4  c #5E423E",
"5  c #5C4C3C",
"6  c #5C523C",
"7  c #61423F",
"8  c #6F473F",
"9  c #72413C",
"0  c #64563F",
"q  c #383F43",
"w  c #353E48",
"e  c #333B44",
"r  c #453F42",
"t  c #7B3F40",
"y  c #3A4652",
"u  c #3E4B58",
"i  c #5F4643",
"p  c #554C49",
"a  c #544C50",
"s  c #40505E",
"d  c #54515E",
"f  c #51585F",
"g  c #5A585D",
"h  c #644641",
"j  c #674944",
"k  c #6B4C45",
"l  c #6E4E49",
"z  c #7D4041",
"x  c #774D49",
"c  c #665541",
"v  c #6F5247",
"b  c #655D40",
"n  c #6A5A45",
"m  c #705147",
"M  c #7E5A44",
"N  c #74534A",
"B  c #7D5C4D",
"V  c #745B56",
"C  c #705F5D",
"Z  c #666040",
"A  c #6A6642",
"S  c #726946",
"D  c #72674C",
"F  c #71754B",
"G  c #79754D",
"H  c #797D49",
"J  c #7D625D",
"K  c #435362",
"L  c #485D6E",
"P  c #5E5E62",
"I  c #565F6D",
"U  c #5D5C6B",
"Y  c #56606D",
"T  c #6D6768",
"R  c #736566",
"E  c #7A6E6C",
"W  c #80433E",
"Q  c #8E4342",
"!  c #8C4E43",
"~  c #844F4C",
"^  c #884D49",
"/  c #944242",
"(  c #9F4444",
")  c #9E4844",
"_  c #8D544D",
"`  c #815F4F",
"'  c #91574F",
"]  c #9D554D",
"[  c #835650",
"{  c #825D54",
"}  c #A24B45",
"|  c #AD4D47",
" . c #B35249",
".. c #B6584E",
"X. c #AD5A51",
"o. c #826847",
"O. c #81604F",
"+. c #816E49",
"@. c #827B4B",
"#. c #836A57",
"$. c #85645B",
"%. c #8C655A",
"&. c #836958",
"*. c #8D6A5E",
"=. c #9E6058",
"-. c #847A50",
";. c #A46459",
":. c #8B6A61",
">. c #9B6F64",
",. c #967063",
"<. c #9C7366",
"1. c #95736A",
"2. c #9A7F76",
"3. c #A57868",
"4. c #AF7D6F",
"5. c #B77365",
"6. c #BA7365",
"7. c #C77767",
"8. c #7D814C",
"9. c #6C8553",
"0. c #708752",
"q. c #7D8350",
"w. c #768952",
"e. c #7C8B51",
"r. c #81854D",
"t. c #86894E",
"y. c #888D4F",
"u. c #848E51",
"i. c #879051",
"p. c #8A9150",
"a. c #8B9150",
"s. c #8A9050",
"d. c #899050",
"f. c #8A9150",
"g. c #AF8272",
"h. c #AE8270",
"j. c #A28478",
"k. c #B28270",
"l. c #B18C7D",
"z. c #B78F7E",
"x. c #C38F7A",
"c. c #C4907B",
"v. c #C7937F",
"b. c #C79681",
"n. c #D69E86",
"m. c #D39C84",
"M. c #DA9E85",
"N. c #D6A088",
"B. c #DEA48A",
"V. c #DBA289",
/* pixels */
"a.a.a.a.a.a.a.a.a.a.a.a.a.a.a.a.a.a.a.a.a.a.a.a.a.a.a.a.a.a.",
"a.a.a.a.a.i.i.a.a.a.a.c = = = = S a.a.a.a.a.a.a.i.u.u.a.a.a.",
"a.a.a.a.i.u.u.u.u.a.a.c = = = = S a.a.a.a.a.a.a.e.e.u.a.a.a.",
"a.a.i.u.u.e.e.u.G c c n l j j h 5 5 6 t.a.a.u.e.e.0.w.e.u.a.",
"a.i.u.e.w.w.e.F n k k N l 7 j 7 = $ * b 8.p.e.w.0.9.9.0.e.a.",
"a.a.u.u.u.u.H n k ` ` N k - = = = 4 h $ Z 8.d.e.e.w.w.w.u.a.",
"a.a.a.a.u.t.4 m O.` N m m k = - 7 m m 7 % 6 a.a.a.i.a.i.a.a.",
"a.a.a.a.a.t.5 m B N m k h h : h k k N m = 6 a.a.a.a.a.a.a.a.",
"a.a.a.a.a.t.5 k N m k k 8 7 h v k h k m 4 5 A y.a.a.a.a.a.a.",
"a.a.a.a.a.y.3 h m k 7 l k 7 4 m k h i k k = $ t.a.a.a.a.a.a.",
"a.a.a.a.y.r.% i k 7 = N B k 4 N N k = k l 7 2 t.a.a.a.a.a.a.",
"a.a.a.a.2 % * 4 h 7 = 4 - N c.N 4 - = = & 6 8.a.a.a.a.a.a.a.",
"a.a.a.a.@ # 7 7 - h = %.J C B.k.3.:.p $.k 3 0 t.a.a.a.a.a.a.",
"a.a.a.a.@ # 7 4 - h { x.2.T B.B.B.l.I ,.N % % t.a.a.a.a.a.a.",
"a.a.a.a.$ $ = : h l n.B.j.E B.B.B.z.P V h & * t.a.a.a.a.a.a.",
"a.a.a.a.r.@., > W $.n.B.N.m.B.B.B.N.b.J Q > , y.a.a.a.a.a.a.",
"a.a.a.a.6 5 8 9 : h ,.<.k.b.b.c.k.<.,.i : 9 k 5 6 a.a.a.a.a.",
"a.a.a.a.@ # - 4 & ; ' ' ;.5.5.5.=.~ x c 3 - = # @ a.a.a.a.a.",
"a.a.a.a.2 2 2 $ = Q  . . . . . .| / t @.b 2 2 2 2 a.a.a.a.a.",
"a.a.a.a.y.y.y.M Q  . . . . . . . .) t j G y.a.y.y.a.a.a.a.a.",
"a.a.a.a.a.a.a.M /  . .) }  . . . .} t >.#.G a.a.a.a.a.a.a.a.",
"a.a.a.a.a.d.a.M Q ..7.5.;.]  . . .} t 4.$.D a.a.a.a.a.a.a.a.",
"a.a.a.a.a.a.d.o.! X.M.B.h.` | | | ) t >.&.G a.a.a.a.a.a.a.a.",
"a.a.d.u.i.e.i.d.+.^ m.V.h.~ ( ) ( / t j G a.a.s.u.u.u.u.a.a.",
"a.d.i.e.e.e.e.e.r.-.*.*.J Y U U U K r G u.a.s.s.e.w.u.u.a.a.",
"a.d.i.i.e.e.e.e.i.8.p g Y L u u K s q r.a.a.s.u.e.w.e.u.a.a.",
"a.d.d.d.u.u.t.u.y.0.+ y s s o o e w + r.a.a.a.u.u.u.u.u.u.a.",
"a.a.d.d.i.i.i.d.d.8.. X O O     . . . H a.a.s.s.u.s.u.s.s.a.",
"a.a.a.d.a.d.a.a.a.8.. X O O     . . . H a.a.a.a.a.a.a.a.i.a.",
"a.a.a.a.a.a.a.a.d.d.d.d.a.a.a.a.a.a.a.a.a.a.a.a.a.a.a.a.a.a."
};
