/* XPM */
static char *xpm_[] = {
/* columns rows colors chars-per-pixel */
"30 30 45 1 ",
"  c #8B9150",
". c #8A9150",
"X c #899050",
"o c #889050",
"O c #868F51",
"+ c #828E51",
"@ c #878F50",
"# c #879051",
"$ c #858F51",
"% c #353540",
"& c #818D51",
"* c #798A52",
"= c #879050",
"- c #848E51",
"; c #808D51",
": c #7E8C51",
"> c #7F8D51",
", c #818E51",
"< c #D9A6A6",
"1 c #EDE4DA",
"2 c #728852",
"3 c #778A52",
"4 c #7C8C51",
"5 c #838E51",
"6 c #798B52",
"7 c #7C8C52",
"8 c #758952",
"9 c #708752",
"0 c #6C8553",
"q c #6D8653",
"w c #7C8B51",
"e c #8A9050",
"r c #848F51",
"t c #7F8C51",
"y c #7A8B52",
"u c #BC87A5",
"i c #604B3D",
"p c #735B42",
"a c #557D55",
"s c #868F50",
"d c #7B8B52",
"f c #7D8C51",
"g c #778952",
"h c #858E50",
"j c #848E50",
/* pixels */
"                              ",
"   .XooX.              .O+@   ",
"   .#$$OX %%%%%%%%%%   .&*+   ",
" .=-;:>,O%%<<<<<<11%%.$;*234- ",
" o5:*367+%<<<<<<<<11%X>8900qw ",
" e@-&>&5O%<<<<<<<<<<%.rtw**y5 ",
"   ......%<<<<<<<<<<% ..XXXX. ",
"         %<<<<<<<<<<%%%%      ",
"      %%%%<<<<<<<<<<<11%%     ",
"     %%<<1<<<<<<<<<<<<11%     ",
"     %<<<<<<<<<<<<<<<<<<%     ",
"     %<<<<u<<<<<<<<u<<<u%     ",
"     %u<<<uuuuuuuuuuuuuu%     ",
"     %uuuuuuuuuuuuuuuuu%%     ",
"     %%uuuuuuuuuuuuuiii%      ",
"      %iiiuuuuuuuuuupp%%      ",
"      %%ppuuuuuuuuuu%%%       ",
"       %%%uuuuuuuuuu%         ",
"         %uuuuuuuuuu%         ",
"         %%uuuuuuuu%%         ",
"         a%%%iiii%%%a         ",
"     ... aa%%pppp%%aa         ",
"    eXXe.aa%pppppp%aa         ",
" .X=$--$@aa%pppppp%aa .Xs5sX. ",
" XO+:ddf,aa%%pppp%%aa X@:gtOX ",
" XO+tww:+aaa%%%%%%aaa Xs:3:$o ",
" .o@hjjjsaaaaaaaaaaaa X@5&5$o ",
"  eXXoooXeaaaaaaaaaa  Xo=###X ",
"   ......             ....... ",
"                              "
};
